# Blender v2.79 (sub 0) OBJ File: 'gltut7.blend'
# www.blender.org
o Cube
v 1.000000 -1.000000 -1.000000
v 1.876364 -2.616007 -0.009279
v -1.000000 -1.000000 1.000000
v -1.000000 -1.000000 -1.000000
v 2.640370 0.718878 -0.718896
v 0.999999 1.000000 1.000001
v -1.000000 1.000000 1.000000
v -1.000000 1.000000 -1.000000
vt 0.000000 0.499539
vt 0.328206 1.000000
vt 0.000000 1.000000
vt 0.333984 0.000109
vt 0.664062 0.500109
vt 0.332031 0.500109
vt 0.661951 0.996617
vt 0.995079 0.503539
vt 0.995078 0.996617
vt 0.334050 0.000000
vt 0.000922 0.500461
vt 0.000922 0.000000
vt 0.998047 0.000000
vt 0.664062 0.501953
vt 0.664062 0.000000
vt 0.664411 0.499539
vt 0.333744 1.002461
vt 0.333744 0.499539
vt 0.328206 0.499539
vt 0.666016 0.000109
vt 0.661951 0.503539
vt 0.334050 0.500461
vt 0.998047 0.501953
vt 0.664411 1.002461
vn 0.0000 -1.0000 0.0000
vn 0.0831 0.9931 -0.0831
vn 0.9031 0.3036 -0.3036
vn 0.2141 -0.2141 0.9531
vn -1.0000 -0.0000 -0.0000
vn 0.0831 0.0831 -0.9931
vn -0.5476 -0.6327 -0.5476
vn 0.0000 1.0000 0.0000
vn 0.5268 -0.6010 0.6010
vn -0.0000 0.0000 1.0000
vn 0.0000 0.0000 -1.0000
s off
f 1/1/1 3/2/1 4/3/1
f 8/4/2 6/5/2 5/6/2
f 1/7/3 6/8/3 2/9/3
f 6/10/4 3/11/4 2/12/4
f 3/13/5 8/14/5 4/15/5
f 1/16/6 8/17/6 5/18/6
f 1/1/7 2/19/7 3/2/7
f 8/4/8 7/20/8 6/5/8
f 1/7/9 5/21/9 6/8/9
f 6/10/10 7/22/10 3/11/10
f 3/13/5 7/23/5 8/14/5
f 1/16/11 4/24/11 8/17/11
